<?xml version="1.0" encoding="UTF-8"?>
<!DOCTYPE svg PUBLIC "-//W3C//DTD SVG 1.1//EN" "http://www.w3.org/Graphics/SVG/1.1/DTD/svg11.dtd">
<svg xmlns="http://www.w3.org/2000/svg" version="1.1" width="3830px" height="2220px" style="shape-rendering:geometricPrecision; text-rendering:geometricPrecision; image-rendering:optimizeQuality; fill-rule:evenodd; clip-rule:evenodd" xmlns:xlink="http://www.w3.org/1999/xlink">
<g><path style="opacity:0.997" fill="#0092d9" d="M 1065.5,-0.5 C 1082.5,-0.5 1099.5,-0.5 1116.5,-0.5C 1297.74,0.289473 1478.4,12.1228 1658.5,35C 1774.91,50.3491 1889.58,74.0158 2002.5,106C 2077.3,128.24 2148.97,157.907 2217.5,195C 2313.96,251.453 2392.12,326.953 2452,421.5C 2564.4,601.143 2606.73,796.476 2579,1007.5C 2464.7,902.634 2341.54,809.8 2209.5,729C 2084.95,655.528 1958.62,584.861 1830.5,517C 1819.17,509.667 1807.83,502.333 1796.5,495C 1743.76,449.166 1682.43,421.833 1612.5,413C 1562.38,405.914 1512.05,401.581 1461.5,400C 1409.91,376.134 1356.91,355.801 1302.5,339C 1164.18,297.421 1025.52,257.088 886.5,218C 883.246,215.658 881.412,212.491 881,208.5C 881.63,143.501 881.63,78.5005 881,13.5C 881.797,8.03662 884.963,4.86996 890.5,4C 948.978,1.76672 1007.31,0.266716 1065.5,-0.5 Z"/></g>
<g><path style="opacity:0.993" fill="#0092d9" d="M 22.5,6.5 C 208.834,6.33333 395.167,6.5 581.5,7C 586.198,8.37054 588.698,11.5372 589,16.5C 588.814,66.1613 588.481,115.828 588,165.5C 466.558,134.011 343.724,109.178 219.5,91C 150.897,80.5661 82.2299,70.5661 13.5,61C 9.47287,60.573 6.97287,58.4064 6,54.5C 5.33333,42.8333 5.33333,31.1667 6,19.5C 8.23528,10.9713 13.7353,6.63796 22.5,6.5 Z"/></g>
<g><path style="opacity:0.998" fill="#0092d9" d="M 2772.5,32.5 C 2960.83,32.3333 3149.17,32.5 3337.5,33C 3340.55,33.6064 3343.05,35.1064 3345,37.5C 3346.33,490.754 3347,944.087 3347,1397.5C 3348.78,1403.66 3352.95,1406.82 3359.5,1407C 3510.17,1406.9 3660.83,1406.9 3811.5,1407C 3817.33,1407.16 3821.16,1410 3823,1415.5C 3823.92,1420.96 3824.42,1426.46 3824.5,1432C 3823.68,1562.16 3823.18,1692.33 3823,1822.5C 3822.31,1825.2 3820.81,1827.36 3818.5,1829C 3681.22,1830.66 3543.89,1830.99 3406.5,1830C 3398.03,1827.54 3391.2,1822.7 3386,1815.5C 3278.93,1682.06 3166.26,1553.06 3048,1428.5C 2982.55,1360.71 2914.39,1296.21 2843.5,1235C 2819.87,1215.19 2795.87,1195.85 2771.5,1177C 2766.66,1172.15 2763.83,1166.32 2763,1159.5C 2763.56,787.5 2763.56,415.5 2763,43.5C 2763.6,37.4113 2766.77,33.7446 2772.5,32.5 Z"/></g>
<g><path style="opacity:0.998" fill="#c7252b" d="M 5.5,85.5 C 144.037,109.634 280.037,143.801 413.5,188C 471.286,207.562 527.953,229.896 583.5,255C 585.617,256.731 587.117,258.898 588,261.5C 589.159,338.965 589.659,416.465 589.5,494C 588.64,936.167 588.473,1378.33 589,1820.5C 589.156,1825.38 586.99,1828.55 582.5,1830C 392.167,1830.67 201.833,1830.67 11.5,1830C 9,1828.83 7.16667,1827 6,1824.5C 5.5,1244.83 5.33333,665.167 5.5,85.5 Z"/></g>
<g><path style="opacity:0.997" fill="#c7252b" d="M 880.5,322.5 C 1072.34,408.507 1264.01,495.007 1455.5,582C 1459.96,585.114 1462.79,589.281 1464,594.5C 1464.33,870.5 1464.67,1146.5 1465,1422.5C 1466.72,1427.55 1470.22,1430.38 1475.5,1431C 1547.03,1431.73 1616.7,1420.73 1684.5,1398C 1799.83,1356.33 1873,1276.17 1904,1157.5C 1927.06,1066.27 1939.22,973.607 1940.5,879.5C 1942.53,879.338 1944.53,879.505 1946.5,880C 2071.29,962.423 2189.95,1053.09 2302.5,1152C 2363.7,1207.53 2421.86,1266.03 2477,1327.5C 2481,1332.83 2485,1338.17 2489,1343.5C 2490.7,1347.35 2491.86,1351.35 2492.5,1355.5C 2491.76,1359.94 2490.59,1364.27 2489,1368.5C 2415.14,1502.03 2310.64,1604.2 2175.5,1675C 2120.88,1702.48 2064.55,1725.81 2006.5,1745C 1898.16,1781.75 1787.5,1809.08 1674.5,1827C 1413.17,1827.67 1151.83,1827.67 890.5,1827C 885.124,1826.62 881.958,1823.79 881,1818.5C 880.5,1319.83 880.333,821.167 880.5,322.5 Z"/></g>
<g><path style="opacity:0.972" fill="#fefffe" d="M 129.5,2219.5 C 119.5,2219.5 109.5,2219.5 99.5,2219.5C 73.6058,2218.04 50.2725,2209.54 29.5,2194C 12.424,2177.68 2.42398,2157.85 -0.5,2134.5C -0.5,2131.83 -0.5,2129.17 -0.5,2126.5C 11.123,2125.11 22.7897,2124.11 34.5,2123.5C 37.4881,2152.64 52.8214,2171.81 80.5,2181C 108.339,2189.65 135.339,2187.65 161.5,2175C 183.14,2159.61 187.306,2140.44 174,2117.5C 165.45,2108.97 155.283,2103.14 143.5,2100C 122.919,2094.35 102.252,2089.02 81.5,2084C 64.9189,2080.03 49.5856,2073.37 35.5,2064C 10.6971,2042.69 3.86377,2016.52 15,1985.5C 25.912,1961.93 44.0786,1947.1 69.5,1941C 105.24,1932.08 139.573,1935.75 172.5,1952C 196.596,1967.86 208.596,1990.19 208.5,2019C 196.838,2019.96 185.171,2020.79 173.5,2021.5C 171.024,1993.52 156.024,1976.69 128.5,1971C 109.17,1968.03 90.1698,1969.37 71.5,1975C 50.7136,1984.07 42.8803,1999.57 48,2021.5C 50.7528,2027.25 54.5862,2032.08 59.5,2036C 68.4379,2040.65 77.7713,2044.31 87.5,2047C 114.896,2052.93 141.896,2060.27 168.5,2069C 211.719,2088.61 226.219,2121.11 212,2166.5C 199.699,2191.79 179.866,2207.96 152.5,2215C 144.777,2216.95 137.111,2218.45 129.5,2219.5 Z"/></g>
<g><path style="opacity:0.971" fill="#fefffe" d="M 856.5,2219.5 C 846.833,2219.5 837.167,2219.5 827.5,2219.5C 773.499,2214.38 738.665,2185.72 723,2133.5C 710.04,2089.75 712.04,2046.75 729,2004.5C 748.284,1966.58 779.117,1944.41 821.5,1938C 848.994,1933.73 875.327,1937.39 900.5,1949C 926.934,1964.17 944.268,1986.5 952.5,2016C 940.637,2019.47 928.637,2022.63 916.5,2025.5C 898.1,1975.63 863.1,1958.13 811.5,1973C 788.156,1981.01 771.989,1996.51 763,2019.5C 749.123,2058.49 749.123,2097.49 763,2136.5C 774.42,2163.58 794.586,2180.08 823.5,2186C 875.766,2192.22 907.766,2169.72 919.5,2118.5C 931.816,2120.95 943.983,2123.95 956,2127.5C 944.397,2181.54 911.231,2212.21 856.5,2219.5 Z"/></g>
<g><path style="opacity:0.973" fill="#fefffe" d="M 2303.5,2219.5 C 2294.5,2219.5 2285.5,2219.5 2276.5,2219.5C 2211.85,2210.02 2173.35,2173.02 2161,2108.5C 2156.36,2076.43 2159.36,2045.1 2170,2014.5C 2192.97,1963.08 2232.8,1937.08 2289.5,1936.5C 2354.26,1938.11 2396.09,1969.77 2415,2031.5C 2421.5,2059.69 2422.16,2088.02 2417,2116.5C 2402.72,2176.95 2364.88,2211.29 2303.5,2219.5 Z M 2278.5,1968.5 C 2332.29,1966.46 2365.79,1991.46 2379,2043.5C 2384.65,2071.85 2383.32,2099.85 2375,2127.5C 2357.19,2170.33 2325.03,2190.16 2278.5,2187C 2239.39,2180.56 2213.89,2158.39 2202,2120.5C 2196.78,2095.98 2196.11,2071.32 2200,2046.5C 2208.11,2002.22 2234.28,1976.22 2278.5,1968.5 Z"/></g>
<g><path style="opacity:0.974" fill="#fefffe" d="M 3030.5,2219.5 C 3021.5,2219.5 3012.5,2219.5 3003.5,2219.5C 2940.95,2210.79 2902.78,2175.45 2889,2113.5C 2883.45,2080.93 2885.79,2048.93 2896,2017.5C 2918.25,1964.26 2958.42,1937.26 3016.5,1936.5C 3079.34,1937.87 3120.84,1968.2 3141,2027.5C 3148.44,2056.94 3149.44,2086.6 3144,2116.5C 3129.71,2176.96 3091.88,2211.29 3030.5,2219.5 Z M 3005.5,1968.5 C 3059.28,1966.46 3092.78,1991.46 3106,2043.5C 3111.94,2072.96 3110.27,2101.96 3101,2130.5C 3082.42,2171.36 3050.59,2190.19 3005.5,2187C 2966.39,2180.56 2940.89,2158.39 2929,2120.5C 2923.8,2095.98 2923.13,2071.31 2927,2046.5C 2935.11,2002.22 2961.28,1976.22 3005.5,1968.5 Z"/></g>
<g><path style="opacity:0.987" fill="#fefffe" d="M 1455.5,1941.5 C 1467.83,1941.5 1480.17,1941.5 1492.5,1941.5C 1492.5,1978.83 1492.5,2016.17 1492.5,2053.5C 1539.5,2053.5 1586.5,2053.5 1633.5,2053.5C 1633.5,2016.17 1633.5,1978.83 1633.5,1941.5C 1645.83,1941.5 1658.17,1941.5 1670.5,1941.5C 1670.5,2032.5 1670.5,2123.5 1670.5,2214.5C 1658.17,2214.5 1645.83,2214.5 1633.5,2214.5C 1633.5,2171.83 1633.5,2129.17 1633.5,2086.5C 1586.5,2086.5 1539.5,2086.5 1492.5,2086.5C 1492.5,2129.17 1492.5,2171.83 1492.5,2214.5C 1480.17,2214.5 1467.83,2214.5 1455.5,2214.5C 1455.5,2123.5 1455.5,2032.5 1455.5,1941.5 Z"/></g>
<g><path style="opacity:0.987" fill="#fefffe" d="M 3829.5,2181.5 C 3829.5,2192.5 3829.5,2203.5 3829.5,2214.5C 3772.5,2214.5 3715.5,2214.5 3658.5,2214.5C 3658.5,2123.5 3658.5,2032.5 3658.5,1941.5C 3670.83,1941.5 3683.17,1941.5 3695.5,1941.5C 3695.5,2021.5 3695.5,2101.5 3695.5,2181.5C 3740.17,2181.5 3784.83,2181.5 3829.5,2181.5 Z"/></g>
</svg>
